<?xml version="1.0" encoding="utf-8"?>
<!-- Generator: Adobe Illustrator 19.2.1, SVG Export Plug-In . SVG Version: 6.00 Build 0)  -->
<svg version="1.1" id="Layer_1" xmlns="http://www.w3.org/2000/svg" xmlns:xlink="http://www.w3.org/1999/xlink" x="0px" y="0px"
	 viewBox="0 0 535.5 440.5" style="enable-background:new 0 0 535.5 440.5;" xml:space="preserve">
<style type="text/css">
	.st0{fill:#231F20;}
	.st1{enable-background:new    ;}
	.st2{fill:#202020;}
</style>
<title>logo_with-text</title>
<path class="st0" d="M516.6,280.1l-17.5-21.6l-31.2-2.5L440.4,213l-0.4-5.4l19.1,8.6l0.5-10.5l9.7,14.1l24.4-18.3l-8.8-34.1l4.2-7.2
	l4.5-34.5l-6.9-14.4l3.3-29.6l-23.2,4L366.8,16.9l-31.6,5.1l-64.8-7.5L159.6,0.1L159.1,0L94.2,42.8L94,43l-32.8,57.3l-27.3,80.1l0,0
	v0.1L6.8,191.8L1,260.2L20.5,285l15.9-15.9v-19.5l49-14.7h0.1l40.4-22.3l13.3,65.5l82.4,5.2l-1.5-17.4l-18.9-11.1l20-55.9l29.3-12.4
	l-17.4,66l-0.1,0.3l3.8,19.1l5.8,18.6l77.4,5.2l7.4-27.4L301,256.4l-13.5,1.6l47.9-68.2l17.2-2.3l44.7,71.3l43.4,36.1v0.3l0.2-0.2
	l0.8,0.7L516.6,280.1z M292.2,246.3L251,262.7l-2.7-3.6l49.5-20.7L292.2,246.3z M294,267.2l30.1,2.9l-2.2,7.9l-18.6-1.5L294,267.2z
	 M315.3,292.6l-11.6-0.8L281,264l3.3-2.4L315.3,292.6z M239.2,269.5l-2.2-11.1l15.3,22.9l-4.1,2.9L239.2,269.5z M141.4,274.8
	l-2.2-10.8l57.8-27.5l1,17.9L141.4,274.8z M138.8,262.1l-3.6-17.9l60.7-29.1l1,19.5L138.8,262.1z M76.6,231.9l0.2,2.6l-2.5,0.8
	L76.6,231.9z M77,231.3l0.9-1.3l0.5,4l-1.1,0.3L77,231.3z M78.5,229.2l2.7-3.8l1.3,7.4l-3.4,1L78.5,229.2z M81.8,224.5l0.4-0.6
	l1.7,8.4l-0.6,0.2L81.8,224.5z M73.2,235.5l-5.3,1.6L91,205.4l1,3.4l-1.8,2.6l0,0l0,0L73.2,235.5z M18,248l0.6-1l3.2,32.6l-0.8,0.8
	L18,248z M8.8,201.3l21.2-8.1l-5.2,17.2l-17.2,4.8L8.8,201.3z M484.8,204.7l-7.5,5.6l7.6-31.5l2.8,10.7L484.8,204.7z M488.3,191.5
	l0.8,3.1l-1.8,8.2l-1.4,1L488.3,191.5z M476.2,211.2l-5.3,4l12-44.3l1.5,6L476.2,211.2z M431.6,235.4l0.7,18.5l-3.1-2.8l-0.8-18.5
	L431.6,235.4z M441.5,220v0.3l-8.7,13.6l-0.5-0.4l9.1-13.7L441.5,220z M432.8,254.3l-0.6-18.5l3.4,2.8l0.1,18.2L432.8,254.3z
	 M436.4,237l5-7.8l0,4.6l-2.8,5L436.4,237z M441.4,228.3l-5.4,8.4l-0.7-0.5l6.1-9.7L441.4,228.3z M436,257.2l-0.1-18.1l2.8,2.4
	l0.1,18.2L436,257.2z M439.3,260.1l-0.1-18.2l2,1.7l-0.2,18L439.3,260.1z M438.8,239.1l2.5-4.3l-0.1,6.3L438.8,239.1z M434.8,235.7
	l-1.6-1.4l8.3-13.1v3.8L434.8,235.7z M425.5,248l-0.7-18.3l3,2.5l0.9,18.5L425.5,248z M426.2,228.4l11.5-14.2l0.9,1.4L428,229.9
	L426.2,228.4z M437.6,213.6l-11.7,14.5l-0.8-0.6l12.3-15.6L437.6,213.6z M424.3,229.2l0.7,18.3l-2.4-2.1v-17l0.3-0.4L424.3,229.2z
	 M422.1,229v3.2l-1.5-1.1L422.1,229z M420.3,231.4l1.8,1.3v2.4l-3-2.2L420.3,231.4z M418.9,233.3l3.3,2.4v2.6l-4.3-3.7L418.9,233.3z
	 M417.5,235l4.6,3.9v3.1L416,237L417.5,235z M415.8,237.4l6.4,5.3v2.3l-7.3-6.4L415.8,237.4z M414.3,239.4l14.4,12.6l0,0l0,0
	l12.4,10.8v2.4l-28.2-24L414.3,239.4z M412.6,241.6l28.4,24.2v4.1l-30.2-26.1L412.6,241.6z M410.6,244.2l30.4,26.4v4.5l-32.2-28.5
	L410.6,244.2z M432,233.3l-2.1-1.8l10.2-13.6l1,1.5L432,233.3z M429.2,230.9l-0.8-0.7L439,216l0.7,1.1L429.2,230.9z M437.4,210.8
	L424.6,227l-0.5-0.5l13.2-17.4L437.4,210.8z M398.9,192.5l0.9-2.7l34.8,10.6l1.2,2.7L398.9,192.5z M354,184.5L354,184.5l-0.7,0.1
	l-18.3-5.4l-0.8-8l32.1,12L354,184.5z M252.3,190.8l1.6-6l8.5-10.5l28.8,28.5l-18,6.6L252.3,190.8z M241.8,150.9l3.8-1l15,22.1
	l-2.5,3.1L241.8,150.9z M197.4,191.7l2.2,4l-0.1-0.1l-1.7,3.6L197.4,191.7z M196.1,173.2l-27.9-38.1v-1.6l32.5,44L196.1,173.2z
	 M96.3,214.2l2.7,2.7l-1.3,2.1L96.3,214.2z M55.7,232.1l-11.8,4.6l4.5-5.5l11-3.9L55.7,232.1z M59.9,226.6l-11,3.9l4.1-5l9.9-2.7
	L59.9,226.6z M63.3,222.1l-9.9,2.7l3.5-4.4l8.7-1.5L63.3,222.1z M66.2,218.4l-8.7,1.5l3.2-3.9l8.2-1.1L66.2,218.4z M69.3,214.4
	l-8.2,1.1l2.7-3.3l7.6-0.6L69.3,214.4z M71.8,211.1l-7.6,0.6l3.2-4l7.2-0.3L71.8,211.1z M74.7,198.8l1.8,6.2l-1.6,2h-0.6l-1.7-5.8
	L74.7,198.8z M72.4,201.7l1.5,5.4l-1.9,0.1l-1.3-3.4L72.4,201.7z M70.4,204.1l1.1,3l-3.7,0.2L70.4,204.1z M76.9,204.5l-1.8-6.1
	l2-2.5l2,5.8L76.9,204.5z M79.5,201.2l-2-5.8l2.2-2.7l2,5.5L79.5,201.2z M82.1,197.8l-2-5.5l1.3-1.6l2.6,4.7L82.1,197.8z M84.3,195
	l-2.4-4.3l5,0.9L84.3,195z M95.8,212.4l-1.5-5.4l9.4,12v1.2L95.8,212.4z M88.3,185.6v-0.8l15,22.5l0.1,5.3l-13.7-21.6L88.3,185.6z
	 M88.4,183.3l0.2-3.7l14.5,19.7l0.2,6.3L88.4,183.3z M102.7,183.8l-13.3-17.6l0.1-2.4l13,16.4L102.7,183.8z M103,193.3L89,174
	l0.2-2.5l13.8,18.8L103,193.3z M103,194.9l0.1,2.7l-14.3-19.6l0.2-2.7L103,194.9z M93.6,158l8.3-6.6l0.1,3.5l-6.7,5L93.6,158z
	 M93,157.3l-2.6-2.9l11.3-10.5l0.2,6.3L93,157.3z M102.4,169.2l0.1,3.3L90,158.1l0.2-2.6L102.4,169.2z M95.9,160.6l6.1-4.6l0.3,11.8
	L95.9,160.6z M100.6,104.1l-0.6,0.3l-6.4-7.1l0.2-2.6l6.5,8.1l0.2-0.2L100.6,104.1z M99.2,104.9l-2,1.2l-3.8-4.5l0.2-3.1L99.2,104.9
	z M96.4,106.6l-1.6,1l-1.6-2.3l0.1-2.2L96.4,106.6z M98.9,78l-3.1,4.4l-1-1.2l2.6-4.7L98.9,78z M99.2,50.4l-2.6-0.6l0.1-2.4l2.4,0.5
	L99.2,50.4z M96.6,50.7l2.6,0.7l0.1,2.4l-2.9-0.7L96.6,50.7z M99.4,59.5l-3.4-1l0.1-2.3l3.1,0.9L99.4,59.5z M99.4,60.5l0.1,3.2
	l-3.7-1.6l0.2-2.6L99.4,60.5z M99.6,64.7l0.1,3l-4-2.3l0.1-2.3L99.6,64.7z M100,81.9L97.9,85l-1.6-1.9l3.2-4.5l0.4,0.4L100,81.9z
	 M95.3,83.3l0.4,7l-1.4-2.5l0.3-5.3L95.3,83.3z M96.2,91.2l-0.4-7.2l1.1,1.4l0.8,8.5L96.2,91.2z M98.3,94.7l-0.8-8.8l1,1.2l1.1,9.7
	L98.3,94.7z M100.1,97.8l-1.1-10l1.2,1.4l0.2,9.2L100.1,97.8z M98.6,85.8l1.5-2.2l0.1,4.1L98.6,85.8z M177.9,55.9l-0.2,0.5l-4.7-5.1
	l-0.8-3.1L177.9,55.9z M181.5,60.8l5.3,20.1l-3.8-5.8l-3.5-16.9L181.5,60.8z M184.9,65.5l5.1,20.3l-2-3.1l-5.4-20.4L184.9,65.5z
	 M267.2,18.8l-1.9,3l-75,47.8l-1.7-2.3L267.2,18.8z M266.9,47.7l22.1,89.1l-0.6,0.8l-6.5,1.7L258.9,36.1L266.9,47.7z M328.8,146.7
	l-25.6-23.1L323.8,98L328.8,146.7z M335.2,120.2l-6.7-4.2l-1.1-10.8L335.2,120.2z M355,50l56.1,97.6l0.1,0.2l-3.3,2.8l-54.1-93.5
	l0.4-2.2l54.1,95.1l0.4-0.2l-54.4-95.6L355,50z M368.1,27.2L362,60.2l-0.9-1.5l6.4-33.3L368.1,27.2z M423,135h-13.4l-2.9-8.1
	l17.5,1.3L423,135z M398.3,158.6l-47.6-83l0.3-1.7l48.7,83.6L398.3,158.6z M402.3,159l-1.6,18.8l-1.9,5.7l1.6-23L402.3,159z
	 M411.2,155.1l6.8,15.1l-3.4-1.1l-4.2-11.4L411.2,155.1z M410.1,158.4l3.9,10.5l-2.5-0.8l-2.3-6.9L410.1,158.4z M409,162l2,6
	l-3.6-1.2L409,162z M405.2,164.5l0.7-8.5l2.9-2.4L405.2,164.5z M404.5,153.5l-51.8-90.1l0.5-3.3l53.1,91.7L404.5,153.5z
	 M405.4,156.5l-0.8,9.9L402,174l1.3-15.9L405.4,156.5z M401.3,185.3l30.8,9.5l2.3,5.2l-34.5-10.5L401.3,185.3z M401.9,183.5l1.2-3.7
	l26.2,8.6l1.8,4L401.9,183.5z M403.2,179.4l0.9-2.7l23.3,7.6l1.6,3.5L403.2,179.4z M404.4,175.8l1.3-3.9l18.8,5.9l2.4,5.4
	L404.4,175.8z M405.9,171.5l0.5-1.5l17.2,5.5l0.8,1.7L405.9,171.5z M406.5,169.5l0.3-0.9l15.9,5l0.6,1.3L406.5,169.5z M418.6,170.3
	l-7.2-15.9l1.1-3.4l9,20.3L418.6,170.3z M396.4,106.3l-2.7,9l-0.5-0.8l2.8-9.3L396.4,106.3z M396.7,107.1l1,2.7l-2.6,8l-1.1-1.9
	L396.7,107.1z M397.9,110.5l1,2.7l-1.8,8l-1.7-2.9L397.9,110.5z M399.5,114.9l2.7,7.5L401,128l-3.2-5.6L399.5,114.9z M402.7,124
	l6.6,18.5l-7.7-13.4L402.7,124z M424.4,127.3l-18-1.4l-4.2-11.8l24.4,1.8L424.4,127.3z M426.9,114l-25.4-1.8l-4.4-12.3l31.7,4.1
	L426.9,114z M395.5,103.8l-2.9,9.6l-2-3.4l3.2-11.2L395.5,103.8z M390.3,109.5l-1.7-2.9l3.5-12.3l1.3,3.8L390.3,109.5z M391.6,92.8
	l-3.6,12.6l-1.7-2.9l3.6-14.3L391.6,92.8z M386,101.9l-2-3.4l4-15.7l1.7,4.6L386,101.9z M383.7,97.9l-0.7-1.2l4.1-16.5l0.7,1.9
	L383.7,97.9z M379.7,90.9l5.1-17.3l1.8,5l-4.2,17L379.7,90.9z M379.3,90.4l-0.7-1.2l5-18.5l0.8,2.1L379.3,90.4z M378.3,88.6
	l-0.5-0.9l4.8-20.1l0.8,2.3L378.3,88.6z M382.1,66l-4.9,20.5l-1.9-3.3l4.8-22.4L382.1,66z M374.6,82.2l4.9-23.1l0.3,0.8l-5,22.7
	L374.6,82.2z M373.9,81l-2.8-4.9l5.1-26.4l2.8,7.7L373.9,81z M370.3,74.8l5.1-27l0.4,1.1l-5.1,26.6L370.3,74.8z M370,74.2l-1.1-2
	l5.1-28.8l1.3,3.5L370,74.2z M373.2,41.6l-5.2,29.3l-2.2-3.9l5.3-31.1L373.2,41.6z M365.5,66.4l-0.9-1.6l5.9-31l0.4,1.2L365.5,66.4z
	 M364.2,64.2l-1.5-2.7l6-32.6l1.4,4L364.2,64.2z M352.5,64.9l51.3,89.2l-3.7,3.1l-48.9-84L352.5,64.9z M350.3,78.5l46.6,81.3
	l-3.7,3.1l-44.3-75.9L350.3,78.5z M388,177.2l0.5-0.3l4.4,8.6l-0.3,2.8l-5-9L388,177.2z M391.1,175.7l2.3,4.8l-0.4,3.7l-3.9-7.6
	L391.1,175.7z M393.6,179.6l-2-4.1l2.5-1.2L393.6,179.6z M394.2,173.7l-6.1,3l0.3-2l6-3.4L394.2,173.7z M394.5,170.7l-6,3.3l0.2-1.8
	l6-3.7L394.5,170.7z M394.8,167.6l-5.9,3.7l0.2-1.1l6-5.1L394.8,167.6z M348.6,88.6l43.8,75l-1.5,1.3l-42.9-72.8L348.6,88.6z
	 M347.9,92.8l42.6,72.4l-4.5,3.8l-39.5-67.9L347.9,92.8z M383.6,174.7l-1.3,12.1l-1.2-0.4l1.3-10.8L383.6,174.7z M380.9,173.2
	l-35.4-66l0.5-3.3l38.5,66.2L380.9,173.2z M345.3,108.4l35,65.3l-2,1.7l-33.6-63.6L345.3,108.4z M377.3,176.2l-32.9-62.5l0.2-1.1
	l33.4,63.1L377.3,176.2z M344.2,115.2l32.4,61.6l-1.9,1.6L343.4,120L344.2,115.2z M343.3,120.8l31.1,58l-2,1.7l-29.8-55.7
	L343.3,120.8z M342.4,126.3l29.2,54.7l-1,0.9l-25.9-49.5l0,0h-0.1l-2.5-4.8L342.4,126.3z M346.1,141L330,130.6l-0.5-5.1l11.7,6
	L346.1,141z M347,142.7l4.8,9.2l-20.9-12.8l-0.8-7.3L347,142.7z M352.6,153.5l4.1,7.9L332,150l0.2-0.2l-0.3-0.3l-1-9.3L352.6,153.5z
	 M357.5,162.8l5.8,11.1l-30.2-12.7l-1-10.2L357.5,162.8z M333.3,162.3l30.7,12.9l3.9,7.5l-33.8-12.6L333.3,162.3z M340.3,130.1
	l-11-5.6l-0.7-7.2l7.5,4.7L340.3,130.1z M298.2,125.3l-1.6-6.5l6.7,0.3L298.2,125.3z M293.9,86.4l-6.1-2.7l-2.4-9.5L293.9,86.4z
	 M294.7,87.5l4.4,6.3l-9.6-3.6l-1.4-5.6L294.7,87.5z M299.7,94.8l3.8,5.4l-12.3-3l-1.5-6.2L299.7,94.8z M304.1,101l3.3,4.7l-14.3-1
	l-1.7-6.9L304.1,101z M307.9,106.5l2.5,3.6l-1.5,1.9l-14.1-0.3l-1.5-6.2L307.9,106.5z M308.3,112.7l-4.6,5.7l-7.4-0.3l-1.4-5.7
	L308.3,112.7z M316.9,102.1l-8-76.3l4.9-3.1l7.7,73.7L316.9,102.1z M307.2,26.9l8,77.2l-1.4,1.8L305.4,28L307.2,26.9z M305,28.3
	l8.4,78.1l-1.1,1.4l-4.4-6.3l-6.1-71.1L305,28.3z M300.9,31l5.9,69l-4.8-6.9l-5.6-59.3L300.9,31z M295.9,34.2l5.5,58.2l-1.4-2
	l-5.9-55.1L295.9,34.2z M293.2,35.9l5.8,52.9l-4.9-7l-4.7-43.4L293.2,35.9z M287.6,39.5l4.2,39.1l-5-7.2l-2.5-29.8L287.6,39.5z
	 M283.6,42.1l2.4,28.2l-2.8-4l-2.1-22.6L283.6,42.1z M280.3,44.3l1.9,20.4l-4.5-6.5l-1-11.6L280.3,44.3z M276,47.1l0.9,10l-3.7-5.4
	v-2.9L276,47.1z M272.5,50.7l-0.7-1l0.7-0.4L272.5,50.7L272.5,50.7z M272.5,55.6L272.5,55.6L272.5,55.6l9.9,14.2l3.4,13.6l0,0.1h0.1
	l10.9,43.5l-6.3,7.8l-20.5-82.9L272.5,55.6z M160.9,125.1l0.2-37.2l5.5,3.9l0.6,30.8l-0.1,0.1l0.1,0.1l0.2,11.4L160.9,125.1z
	 M154.3,116l0.5-32.7l4.7,3.3h-0.1l-0.2,36L154.3,116z M148.7,108.3l0.8-28.7l4.3,3l-0.4,32.1L148.7,108.3z M123.5,74l-1-15.6l0,0
	l4.7-3.1l1,25L123.5,74z M128.7,81l-1-26l4.4-2.9l0.4,34.1L128.7,81z M191.5,93.1l-7.2,4.4l-6-24.5L191.5,93.1z M192.7,75.9
	l2.6,17.9l-1.4-2.1l-3.1-18.4L192.7,75.9z M258.1,36.8l22.8,102.7l-4,1.1L255.4,41L258.1,36.8z M270.4,142.3L249.8,50l4.2-6.7
	l21.1,97.7L270.4,142.3z M260.9,144.8l-17-85.5l2.2-3.4l19.6,87.6L260.9,144.8z M255.9,146.2l-17.7-77.8l5.1-8.2l16.9,84.8
	L255.9,146.2z M251.1,147.4l-15.7-74.8l2-3.2l17.5,76.9L251.1,147.4z M248.4,148.2l-15.6-71.2l2.1-3.4l15.5,74.1L248.4,148.2z
	 M246.6,148.6L230.8,80l1.2-2l15.4,70.4L246.6,148.6z M230.7,95.5l-1.2,2.2l0,0l-1.9,3.3l0,0l-8.8,15.5l-1.2-1.8l13.9-23.8l0.5,2.3
	L230.7,95.5L230.7,95.5L230.7,95.5z M230.7,148.1l-1.1-1.6h6.9l1.1,1.6H230.7L230.7,148.1z M161,86.6l-27-18.9V66l47.5,32.2l0.8,3.4
	L161,86.6L161,86.6L161,86.6L161,86.6z M179,87.9l0.7,2.7L134,59.8v-2.7L179,87.9z M170.1,66.7L170.1,66.7l3.2-2l0.5,2.2l-3.7,2.1
	L170.1,66.7z M198.8,104.5l-11.3,6.5l-3-12.5l7.5-4.5L198.8,104.5z M252.1,42.7l-2.5,4.1v-2.2L252.1,42.7z M248.8,47.9l-2.2,3.5
	l-0.4-4.4l2.7-1.9L248.8,47.9L248.8,47.9z M245.5,47.5l0.5,4.9l-2.5,4l-0.8-6.9L245.5,47.5z M242,50.1l0.8,7.4l-3,4.8l-0.5-10.2
	L242,50.1z M237.5,53.4l0.5,11.7l-4.5,7.2l-0.9-15.3L237.5,53.4z M230.8,58.3l1,16.7l-4,6.4l-0.4-20.6L230.8,58.3z M233.3,138.3
	l-6.4-34.8l0.8-1.4l7.3,38.7L233.3,138.3z M226.6,104.1l6.1,33.1l-2.3-3.5l-5.1-27.2L226.6,104.1z M218.2,128.9h6.6l3.5,5.2
	l-6.8-0.1L218.2,128.9z M194.5,151.2l-3.6-4.5l1.7-3.2L194.5,151.2z M190.3,145.9l-1.4-1.8l2.8-4.5l0.6,2.5L190.3,145.9z
	 M188.5,143.8l-0.6-0.8l3.3-5.2l0.3,1.2L188.5,143.8z M167.9,116.6l3.9-3.2l2.2,1.2l-5.6,3.9l-0.5-0.7L167.9,116.6z M174.5,114.9
	l3.2,1.8l-6.8,5l-2.2-2.8L174.5,114.9z M178.2,116.9l1.6,0.9l-7.5,5.6l-1.1-1.3L178.2,116.9z M180.3,118l2.2,1.2l-7.9,7l-2-2.6
	L180.3,118z M183.4,119.7l0.8,0.4l-8.2,7.9l-0.8-1L183.4,119.7z M184.6,120.4l2.7,1.5l0.1,0.6l-8.5,9.3l-2.6-3.3L184.6,120.4z
	 M187.6,123l0.6,2.3l-7.3,8.9l-1.6-2L187.6,123z M188.3,125.8l0.5,2.1l-6.5,8l-1.1-1.4L188.3,125.8z M189.1,129.1l1.3,5.2l-4.3,6.4
	l-3.2-4L189.1,129.1z M190.6,135.2l0.5,2.1l-3.5,5.3l-1.1-1.4L190.6,135.2z M187.8,111.9l11.6-6.7l8.8,13.5l-16.5,9.4L187.8,111.9z
	 M213.5,104.2l-0.7,1.1L202,90.3l-0.4-2.2L213.5,104.2z M205.1,108.8l-0.8-5l4.4,8l-0.8,1.3L205.1,108.8z M211.7,106.9l-9.2-13.6
	l-0.3-2l10.3,14.4L211.7,106.9z M209.1,111.1l-5.2-9.4l-0.3-2l6.4,10.1L209.1,111.1z M210.3,109.1l-7.1-11.2l-0.5-2.9l8.5,12.6
	L210.3,109.1z M200.7,86.8l3.5,20.5l-2.3-3.5l-3.1-19.7L200.7,86.8z M221.7,124.2h-6.5l-2.9-4.5h6.5L221.7,124.2z M222.3,125.1
	l1.9,2.8h-6.6l-1.8-2.8L222.3,125.1z M224.8,107.2l4.8,25.5l-2.4-3.5l-3.5-20.2L224.8,107.2z M223.4,109.6l3.2,18.6l-2.9-4.4
	l-2-11.3L223.4,109.6z M221.4,113.2l1.7,9.7l-3.9-5.8L221.4,113.2z M211,117.8l-2-3.1l3.1-4.9l5.4,8L211,117.8L211,117.8z
	 M214.5,110l15.7-24.8l1.1,4.7L217.1,114L214.5,110z M230,84.5l-15.8,25.1l-1-1.5l16.3-25.9L230,84.5z M226.5,61.4l0.4,21.3l-6.3,10
	l0.5-27.4L226.5,61.4z M219.6,94.3l-4,6.5l0.6-31.8l4-2.9L219.6,94.3z M213.7,101.3l-2.5-3.5L211,72.8l3.2-2.3L213.7,101.3z
	 M210.1,73.4l0.1,23.2l-3.8-5.1l-0.6-14.9L210.1,73.4z M204.9,77.2l0.5,12.9l-6.4-8.6L204.9,77.2z M198.1,83.3l3.1,19.6l-2.4-3.6
	l-3.1-19.2L198.1,83.3z M134,60.9L180,92l1.4,5.5L134,65.4L134,60.9z M171.4,80.4l-1-3.1l0.7-0.4l1.8,4.5L171.4,80.4z M175.6,73.7
	l-5.3,3.1l0-3.2l4.6-2.8L175.6,73.7z M174.3,82.3l-2.3-5.9l1.1-0.6l2.6,7.6L174.3,82.3z M176,83.5l-2.8-7.9l1.5-0.9l2.6,9.8
	L176,83.5z M178,84.9l-2.8-10.4l0.5-0.3l2.7,11L178,84.9z M175.3,60.6l0.6,0.8l-0.3,0.8L175.3,60.6z M176.1,63.8l1.4-4l1.6,9.3
	l-2.8-4.2L176.1,63.8z M176.1,60.8l-1.1-1.4l-0.9-3.6l2.9,2.4L176.1,60.8z M170.2,70l3.9-2.2l0.6,2.5l-4.5,2.8l0-3.2L170.2,70z
	 M170.3,78.6l0.4,1.4l-0.4-0.3L170.3,78.6z M182.7,102.9l0.9,3.7l-16.1-10.8l-0.1-3.6L182.7,102.9z M183.7,107.3l1,4l-17.2-10.5
	l-0.1-4.4L183.7,107.3z M184.9,111.9l1.1,4.4l-18.3-9.7l-0.1-5.3L184.9,111.9z M186.1,116.9l1,4.2l-19.4-10.5l-0.1-3.5L186.1,116.9z
	 M171.3,113.1l-3.5,2.8l-0.1-4.8L171.3,113.1z M167.9,118.6l17.8,22.4v0.1l0.2,0.1l8.8,11.1l2.3,9.3l-29-39.1L167.9,118.6z
	 M192.2,130l17-9.7l9.4,14.4l-22.2,12.6L192.2,130z M228.9,134.9l1.4,2.1h-6.8l-1.4-2.2L228.9,134.9z M230.9,137.9l1.8,2.7l-6.8,0.1
	l-1.8-2.8L230.9,137.9L230.9,137.9z M233,141.1l1.8,2.7h-6.9l-1.7-2.7L233,141.1z M235.1,144.3l1.1,1.6h-6.9l-1.1-1.6H235.1
	L235.1,144.3z M236.3,142.7l-7.8-41.9l0,0l1.2-2l8.3,46.3L236.3,142.7z M247.4,53.6l1.8-2.8l20.5,91.6l-2.3,0.6L247.4,53.6z
	 M254.8,38.3l-56.9,41.6l-2-2.7l59.3-39.5L254.8,38.3z M195.1,79.3l3.1,19l-2.3-3.5l-2.6-18L195.1,79.3z M179.8,70.1l-1.9-11.2
	l0.8-2.1l3.4,16.7L179.8,70.1z M177.2,57.9l-3.2-2.8l-0.7-2.8l4.3,4.6L177.2,57.9z M173.3,64.2l-3.1,1.9l-0.3-15.9L173.3,64.2z
	 M169.4,48.2l0.5,31.2l-2.4-1.7V40.4L169.4,48.2z M166.5,77.1l-2-1.4l0.2-45.2l0.3-0.2l1.5,6.2L166.5,77.1L166.5,77.1z M164,75.4
	l-2.7-1.9l0.9-41.4l2-1.3L164,75.4z M160.6,73.1l-1.7-1.2l-0.3-37.3l2.9-1.9L160.6,73.1z M157.7,35.2l0.2,36.1l-0.8-0.6V35.5
	L157.7,35.2z M156.2,70l-3.9-2.7V38.7l3.9-2.6L156.2,70L156.2,70z M151.4,66.7l-1.9-1.3V40.6l1.9-1.2L151.4,66.7z M149,65.1
	l-3.8-2.6V43.4l3.9-2.6L149,65.1L149,65.1z M143.3,44.7v16.6l-4.6-3.1l-0.2-10.3L143.3,44.7z M138,48.1l0.2,9.6l-4.4-3l0-3.9
	L138,48.1z M134.3,88.8l-0.3-20l2.8,2L136.7,92L134.3,88.8z M137.6,71.3l2,1.4l-0.1,23.1l-2.1-2.9L137.6,71.3z M140.1,73l0.8,0.5
	l-0.2,23.8l-0.7-0.9L140.1,73z M141.1,98l0.2-24.2l2.7,1.9l-0.6,25.4L141.1,98z M144.4,76.1l2.6,1.8l-0.7,27.3l-2.5-3.5L144.4,76.1z
	 M147.9,78.6l1,0.7l-0.8,28.4l-0.9-1.3L147.9,78.6z M168.1,127.9l31.2,42.9l1.4,5.8l-32.5-43.9L168.1,127.9z M168.1,126.7l-0.1-3
	l29.4,39.7l1.4,5.7L168.1,126.7z M196.6,148.2l22.5-12.7l10,15.4L200.7,165L196.6,148.2z M231,148.6h1.6l0.1,2.5L231,148.6z
	 M233.2,151.8l-0.1-3.3h1.8l0.1,6.1L233.2,151.8z M235.5,155.4l-0.1-6.9h1.1l0.1,8.5L235.5,155.4z M237.1,157.8l-0.1-9.3h1l0.2,0.3
	l0.4,11.4L237.1,157.8z M239.1,160.9l-0.5-11.4l1.5,2.3v10.7L239.1,160.9z M239.1,146.9l-8.9-49.5l0,0l0.5-1l10.8,53.4l-0.4,0.1
	L239.1,146.9z M242.5,149.6l-10.9-54.3l0,0l0.6-1.1l12.6,54.9L242.5,149.6z M249,148.9l13.7,20.3l-1.7,2.1l-14.5-21.6L249,148.9z
	 M263.2,168.5l-13.5-19.9l1.5-0.4l13,19L263.2,168.5z M265.5,165.7l-12.3-17.9l3.9-1l11,15.7L265.5,165.7z M268.8,161.7l-10.6-15.2
	l2.9-0.8l9.6,13.7L268.8,161.7z M262.9,145.2l2.9-0.8l8,11l-2,2.5L262.9,145.2z M275.1,153.8l-7.3-10l3.1-0.8l6.2,8.3L275.1,153.8z
	 M278.3,149.8l-5.5-7.3l3.1-0.8l4.3,5.7L278.3,149.8z M280.7,146.8l-4-5.3l1.6-0.4l3.6,4.3L280.7,146.8z M282.3,144.8l-3.3-3.9
	l2.2-0.6l2.3,2.9L282.3,144.8z M284.1,142.7l-2-2.6l5.2-1.4L284.1,142.7z M255.8,36.8L195.7,77l-1.7-2.3l64.7-42.4L255.8,36.8z
	 M261.1,28.4l-68.2,44.7l-0.9-1.2l70.4-45.6L261.1,28.4z M263,25.4l-71.3,46.2l-0.9-1.2l73.3-46.7L263,25.4z M226.6,41.6L213.7,14
	l1.5-3l14.3,28.8L226.6,41.6z M213.2,15.1l12.7,27l-3.2,2L211.3,19L213.2,15.1z M210.8,20.1l11,24.5l-3.8,2.3l-9.5-22.2L210.8,20.1z
	 M208.1,25.8l9.2,21.6l-3.4,2.1l-7.7-19.6L208.1,25.8z M205.6,31l7.5,19l-3.2,2l-6.6-16L205.6,31z M202.6,37.1l6.3,15.4l-3.7,2.3
	l-5-12.8L202.6,37.1z M199.7,43.2l4.7,12.1l-4,2.5l-3.3-9.1L199.7,43.2z M196.5,49.8l3.1,8.4l-2.8,1.8l-2.1-6.3L196.5,49.8z
	 M194.1,54.9l1.9,5.6l-6.5,4L194.1,54.9z M189.5,71.6l3.1,18.2l-1.4-2.2L186,67L189.5,71.6z M108.1,52.9l53.7-36l0.8,3.4L109,54.1
	L108.1,52.9z M107.2,51.7l54.1-36.5l0.3,1.1l-53.8,36.1L107.2,51.7z M160.3,11.1l-56,36.6l-2.4-3.2l57.4-37.6L160.3,11.1z M160.8,13
	l0.4,1.7l-54.3,36.6l-1.5-2.1L160.8,13z M163,22.1l0.5,2.2l-51.4,34l-2.1-2.8L163,22.1z M163.8,25.4l0.7,3l-50.2,33.1l-1.7-2.3
	L163.8,25.4z M120.7,59.5l0.8,11.6l-6-8.1L120.7,59.5z M127.2,83.7l9.6,119.8l-8.5,4.5l-7.1-132.6L127.2,83.7z M139.4,202.1
	L130.3,88l4.2,5.8l11.8,104.6L139.4,202.1z M147.2,198L135.6,95.3l5.7,7.7l12.3,91.5L147.2,198z M154.5,194.1l-12-89.5l6.7,9.2
	l12.7,76.4L154.5,194.1z M162.7,189.7l-12.3-74.2l5.5,7.5l11.4,64.3L162.7,189.7z M168.1,186.8l-11-62.2l6,8.2l9.8,51.4L168.1,186.8
	z M173.8,183.8l-9.4-49.2l4,5.4l8.4,42.2L173.8,183.8z M177.6,181.8l-7.9-40l4,5.4l7,32.9L177.6,181.8z M181.6,179.7l-6.5-30.6
	l5.9,8.1l5.5,19.9L181.6,179.7z M187.3,176.7l-4.8-17.4l10.5,14.3L187.3,176.7z M200.9,166l28.8-14.3l9,13.8l-34.2,15L200.9,166z
	 M240.9,163.7v-10.8l1.9,2.9v10.8L240.9,163.7z M243.3,156.6l2,3v10.8l-2-3.1v-10.8V156.6z M246.3,161l0.3,0.5v10.9l-0.3-0.5v-11
	V161z M256.9,176.8l-4.1,5.1l-0.2-0.3l0.5-10.4L256.9,176.8z M292.2,202.6l-29.2-29l9.6-12l38.1,34.1L292.2,202.6z M312.8,195
	l-38.9-34.9l10.1-12.6l48.2,40.2L312.8,195z M284.5,146.8l17.5-21.8l27,24.5l3.9,37.8L284.5,146.8z M376.1,181.1l-0.5,3.4l-2.6-0.9
	L376.1,181.1z M376.9,180.4l2.5-2.1l-0.9,7.3l-2.2-0.8L376.9,180.4z M380.4,177.4l1.5-1.2l-1.2,10.2l-1.3-0.5L380.4,177.4z
	 M384.1,174.3l3.8-3.2l-2.3,16.9l-2.8-1L384.1,174.3z M387,184.5l2.9,5l-3.5-1.2L387,184.5z M390.6,189.8l-3.5-6l0.5-3.7l5,9
	l-0.1,1.2L390.6,189.8z M396,164.3l2-1.7l-2.4,28.9l-2.2-0.8L396,164.3z M398.6,162.1l1.4-1.2l-1.7,24.4l-2.1,6.3l-0.2-0.1
	L398.6,162.1z M414.5,148.4l0.7-0.4l28.2,58.2l-4-1.8L414.5,148.4z M415.6,147.7l1.1-0.8l29.3,60.3l-1.9-0.9L415.6,147.7z
	 M417.5,146.4l1.3-0.9l31.6,63.7l-3.1-1.5L417.5,146.4z M419.2,145.3l1.3-0.9l34.4,66.9l-3.9-1.7L419.2,145.3z M413.4,145.7
	l-3.1-8.8h12.3l-0.6,3L413.4,145.7z M431.4,105.4l3.9,0.7l-3.9,24.3l-5.8,6L431.4,105.4z M448,117.4l-5.1,1.4l1.1-11l4.5,0.9
	L448,117.4z M456.4,118.1l2.2,5.7v0.1h0.1l10.7,27.9l-3.3,2.2l-13.1-35.1L456.4,118.1z M488.4,144.2l-22.4-3.6l-0.1-0.3l22.5,3.5
	L488.4,144.2z M488.5,143.3l-22.8-3.6l-0.6-1.5l23.5,3.9L488.5,143.3z M471.6,164.6l-4.3-4.9l-3.3-1l5.9-4l7.4,10.4L471.6,164.6z
	 M443.7,121.4l4.3-1.2l13.8,36.6l-2.9,1.9L443.7,121.4z M452.1,119.1l13.2,35.4l-1.9,1.3l-13.6-36L452.1,119.1z M441.9,119h-0.1
	l0.1,0.4v0.2l-3.4,3.5l2.3-16l2.3,0.4L441.9,119z M437.3,124.3l-4.8,5l3.7-23l3.6,0.7L437.3,124.3z M441.6,123.8l2,4.8l-16.5,15.9
	l-2-3.5L441.6,123.8z M443.8,129l1.9,4.8l-16,15.3l-2.4-4.1L443.8,129z M446.1,134.7l1.7,4.1l-15.3,15l-2.2-3.9L446.1,134.7z
	 M448.1,139.7l1.1,2.6l-15,14.6l-1.3-2.2L448.1,139.7z M449.4,142.7l3.3,8l-14.4,13.1l-3.8-6.5L449.4,142.7z M453.4,152.6l0.5,1.2
	l-14,12.8l-0.7-1.2L453.4,152.6z M454.1,154.3l2.6,6.3l-13,12.8l-3.6-6.3L454.1,154.3z M456.3,162.3l-7.3,20.3l-4.8-8.3L456.3,162.3
	z M459.8,160.9l-0.2-0.5l6,1.8l2.5,2.8l-9.5,34.4l-7.7-13.6L459.8,160.9z M459,199.9l9.6-34.5l1.2,1.3l-8.9,35.9l-1.3-1.9L459,199.9
	z M471.4,167.4l10.8,1.1l0.1,0.5l-12.6,46.6l-7.5-10.8L471.4,167.4z M481.9,166.8l-2.4-3.4l4.1,0.5L481.9,166.8z M479.1,162.9
	l-2.5-3.5l8.9,1.1l-1.8,3L479.1,162.9z M476.3,158.9l-1.5-2.1l11.6,1.7l-0.1,0.6l-0.5,0.9L476.3,158.9z M474.5,156.3l-0.4-0.6
	l12.6,2.2v0.3L474.5,156.3z M473.7,155.2l-1.1-1.5l14.2,2.4l-0.2,1.4L473.7,155.2z M471.8,152.5l-1.1-1.6l-0.5,0.3l-0.9-2.4
	l18.1,3.5l-0.4,2.8L471.8,152.5z M468.9,148.2l-0.9-2.2l19.5,3.5l-0.3,2.4L468.9,148.2z M467.7,144.9l-0.4-1.1l20.6,3.9l-0.1,0.9
	L467.7,144.9z M467,143.2l-0.9-2.3l22.1,3.6l-0.3,2.7L467,143.2z M464.7,137.3l-0.4-1.1l24.4,4.3l-0.1,0.8L464.7,137.3z
	 M464.2,135.8l-0.2-0.5l24.9,4.5v0.3L464.2,135.8z M489,139.4l-25.2-4.6l0,0l-1.5-3.9l27,6L489,139.4z M461.9,129.8l-0.8-2l28.5,6.7
	l-0.2,1.5L461.9,129.8z M460.9,127.2l-1.2-3.1l30.2,8.3l-0.2,1.6L460.9,127.2z M459,122v0.1l-0.5-1.2l31.8,8.5l-0.2,1.1L459,122z
	 M490.3,129l-32-8.5l-1-2.7l3.9-1l29.4,10.1L490.3,129z M472.8,117.7l14.6,1.5l2.1,4.3L472.8,117.7z M470.8,116.6v-1.5l15.2,1.1l1,2
	L470.8,116.6z M470.8,114.1v-2.8l13.2,0.9l0,0.1l1.4,2.9L470.8,114.1z M470.8,110.4v-2L481,109l2.1,2.3L470.8,110.4z M470.8,107.4
	l0.1-5.4l4.6,0.8l4.7,5.2L470.8,107.4z M470.8,101.1v-3.3l3.5,3.9L470.8,101.1z M469.7,116.7l-8.6-3l-3.2,0.9v-10.8l12-6.2
	L469.7,116.7z M457,114.8l-8.1,2.2l0.5-8.9l7.6-3.9L457,114.8L457,114.8z M429,102l-0.2,1l-32.2-4.1L393,89l60.7,10l-6,6.6L429,102z
	 M455.2,97.3l-62.9-10.4L387,71.8l76,17.1L455.2,97.3z M463.6,88.1l-77.1-17.4l-4-11.3l68.1,18.6l13.7,9.4L463.6,88.1z M382.1,58.3
	L378,46.9l54.7,18.8l15.5,10.7L382.1,58.3z M377.8,45.8L374,35.4l33.6,13L430,63.8L377.8,45.8z M373.6,34.2L369.2,22l35,24.1
	L373.6,34.2z M365.5,19.9l1.7,4.7l-6.4,33.5l-1.7-2.9L365.5,19.9L365.5,19.9z M358.3,53.9l-1.5-2.5l5-30.9l2.6-0.4L358.3,53.9z
	 M356.5,50.8l-0.6-1l5-29.1l0.5-0.1L356.5,50.8z M355.6,49.1l-0.3-0.6l4.6-27.8l0.6-0.1L355.6,49.1z M340.8,124.7l-2.2-4.1
	l17.8-99.2l1.5-0.2L340.8,124.7z M338.2,119.9l-1.3-2.6l16.7-95.5l2.3-0.4L338.2,119.9z M336.2,116l-0.3-0.6l15.8-93.2l0.9-0.1
	L336.2,116z M335.2,114l-4-7.8l13.5-83l6.2-1L335.2,114z M330.6,105.2l-1.7-3.2l12.4-78.1l2.5-0.4L330.6,105.2z M328.5,101.2l-1.1-2
	l11.5-75l1.9-0.3L328.5,101.2z M327.1,98.5l-1.7-3.1l11-70.8l2-0.3L327.1,98.5z M331,41.3L329.1,24l4.5,0.5L331,41.3z M330.6,43.9
	l-2.7,17.6l-3.8-38l4.4,0.5L330.6,43.9z M327.6,63.3l-0.8,5l-4.5-45.1l1.2,0.1L327.6,63.3z M326.2,72l-3,19.1l-0.2-0.3l0.1,0.8
	l-0.1,0.7l-7.3-69.8l5.6,0.6L326.2,72z M270.9,48.2l-2-2.8L307,21.5l4.3,0.5L270.9,48.2z M268.6,45l-1-1.4l36.7-22.4l1.9,0.2
	L268.6,45z M267.1,42.8l-2.5-3.6l32.5-18.9l5.7,0.7L267.1,42.8z M264.1,38.5l-0.2-0.3L294.6,20l1,0.1L264.1,38.5z M263.6,37.8
	l-2.1-3l27.3-15.5l5,0.6L263.6,37.8z M261.3,34.5l-0.9-1.3l0.1-0.1L285.2,19l2.9,0.3L261.3,34.5z M261,32.2l5.2-8.3l9.6-6l8.5,1
	L261,32.2z M266.8,23l3.6-5.8l4.7,0.5L266.8,23z M256.6,23.1l-4.5-8.2l14.7,1.9L256.6,23.1z M255.8,23.6l-5.4,3.3l-6.8-13.1l7.2,0.9
	L255.8,23.6z M249.6,27.4l-4.5,2.8l-9.3-17.4l6.7,0.9L249.6,27.4z M244.3,30.7l-3.8,2.4l-12-21.3l6.3,0.8L244.3,30.7z M239.6,33.6
	l-4.4,2.7l-13.9-25.4l6,0.8L239.6,33.6z M234.4,36.8l-4,2.5L216,10.2l4.2,0.5L234.4,36.8z M187.2,65.1l-3.6-4.7l25.1-51.2l4.9,0.6
	L187.2,65.1z M183.4,60l-2.6-3.5l23.8-47.8l3.7,0.5L183.4,60z M180.2,55.6l-3.5-4.8l21.9-42.9l5.1,0.7L180.2,55.6z M176.3,50.4
	l-1.9-2.5l19.9-40.5l3.6,0.5L176.3,50.4z M173.2,46.1l-2-2.7l-0.3-1.1l17.8-35.7l3.6,0.5L173.2,46.1z M170.3,39.5l-1.4-5.5l14.5-28
	l3.4,0.4L170.3,39.5z M168.3,31.2l-0.7-2.1l12.9-23.5l0.8,0.1L168.3,31.2z M167.1,26.4l-1.5-5.5l9-16l3.9,0.5L167.1,26.4z
	 M165.5,19.9l-1.7-6.9l5.4-8.8l4.8,0.6L165.5,19.9z M163.6,12L162.4,7l2.1-3.5l4,0.5L163.6,12z M162.2,6.4l-0.8-3.3l2.5,0.3
	L162.2,6.4z M159.2,5.9l-57.8,37.9l-1.1-1.6l58.3-38.5L159.2,5.9z M99.3,46.9L97,46.5l0.1-2.1l2-1.3L99.3,46.9z M96.6,54l2.9,0.7
	v1.5l-3.1-0.9L96.6,54z M95.6,66.5l4.1,2.3l0.1,3.9l-4.4-3.3L95.6,66.5z M99.8,73.9l0.1,3.8L95.2,73l0.1-2.4L99.8,73.9z M95.1,74.2
	l1.6,1.6l-1.9,3.4L95.1,74.2z M100.5,100.2v1.3l-6.6-8.2l0.2-3.8L100.5,100.2z M93.1,106.7L94,108l-1,0.6L93.1,106.7z M92.9,109.7
	l7.7-4.6l0.1,4.7l-8.2,5.3L92.9,109.7z M92.5,116.2l8.3-5.3l0.1,4.8l-8.7,5.7L92.5,116.2z M92.1,122.6l8.8-5.8l0.1,5.4l-9.4,7.2
	L92.1,122.6z M91.6,130.8l9.5-7.3l0.1,4.4l-10,8.7L91.6,130.8z M91.2,137.9l10.1-8.8l0.2,6l-10.6,9.3L91.2,137.9z M90.7,145.7
	l10.8-9.4l0.1,3l-11.1,10.2L90.7,145.7z M90.4,151l11.2-10.4l0.1,2.1l-11.4,10.6L90.4,151z M102.4,174.1l0.1,4.5l-12.9-16.2l0.2-2.8
	L102.4,174.1z M102.7,185.4l0.1,3.1L89.2,170l0.1-2.4L102.7,185.4z M103.5,214.6l0.1,2.9l-10-12.8l-2.9-10.4L103.5,214.6z
	 M75.1,188.6l-4.3-17.5l9.5-3.2l6.4,22.8L75.1,188.6z M36.1,182.8l0.8-0.3l1.3,0.2l-1,4.8l-1.3-4L36.1,182.8z M62.7,187.2l-4.6,5.2
	l-2-6.5L62.7,187.2z M54,185.7l2.6,8.5l0,0l-3,3.4l-3.8-12.8L54,185.7z M47.7,184.5l4.4,14.8h0.1l-3.3,3.8l-6.2-19.5L47.7,184.5z
	 M41.3,185.4l-2.3,8l-0.7-2.3l2.2-7.9h0.2L41.3,185.4z M41.6,186.2l1,3.2l-2.2,8.3l-1.1-3.5L41.6,186.2z M43,190.7l0.4,1.2l-1.9,8.9
	l-0.6-1.9L43,190.7z M43.7,192.8l1.7,5.4l-2.3,7.8l-1.3-4.2L43.7,192.8z M43.9,208.8l-0.5-1.6l2.3-7.8l1.7,5.3l0,0L43.9,208.8z
	 M38,190.3l-0.4-1.5l1.3-6l1.1,0.2L38,190.3z M37.7,191.5L37.7,191.5l5.7,17.9l-4.1,4.8l-5.5-23.8l1.7-5.7L37.7,191.5z M37.7,215.8
	h0.1l-2.2,2.5l-4.2-20.2l1.3-4.2L37.7,215.8z M30.3,202l3.7,18.1h0.2l-2.9,3.4l-3.2-14.1L30.3,202z M28.6,226.4L26.1,216l1-3.2
	l2.7,12.1h0.1L28.6,226.4z M25.7,217.4l2.4,9.7l-1.7,2l0,0l-1.8-7.9L25.7,217.4z M23.7,224l0.5-1.5l0.9,4.1L23.7,224z M26.8,229.9
	l4.6-5.3h0.1v-0.1l4.2-4.8h0.2v-0.1l3.6-4.1h0.1v-0.1l9.7-11.1l0,0l0,0l4.6-5.4H54l0,0l4.5-5.1l0,0l0,0l5.3-6.1l2.3,0.4l-38.4,43.9
	L26.8,229.9z M61.1,185.9l-2.9-10.7l10.8-3.6l4.1,16.5L61.1,185.9z M47.4,171.8l5.3,2.3l-6.8,2.3L47.4,171.8z M54.1,173.6l-6.4-2.7
	l0.8-2.5l9.5,3.9L54.1,173.6z M79.5,165l-2,0.7l-5.9-27.9L79.5,165z M68.2,125.8l8.4,40.2l-2,0.7L65,117.3l0.4-1.4L68.2,125.8z
	 M64.3,119.2l9.4,47.8l-1.6,0.5l-0.6-0.2l-8.2-44.7L64.3,119.2z M62.8,124.1l7.9,42.9l-1.9-0.8l-6.9-39.4L62.8,124.1z M61.4,128.3
	l6.6,37.6l-1.8-0.8l-5.6-34.3L61.4,128.3z M60.1,132.3l5.3,32.5l-1.7-0.7l-4.5-29L60.1,132.3z M58.9,136.1l4.3,27.8l-2.2-0.9l-3-24
	L58.9,136.1z M57.5,140.6l2.8,22.1l-1.7-0.7l-2.2-17.8L57.5,140.6z M55.8,145.7l2,15.9l-2-0.8l-0.9-12.4L55.8,145.7z M54.2,150.8
	l0.7,9.5l-3.3-1.4L54.2,150.8z M51.3,159.8l19.4,8.2l-4.3,1.5l-16.1-6.7L51.3,159.8z M50,163.7l15,6.2l-4.5,1.5l0-0.1l-11.5-4.7
	L50,163.7z M72.8,189l-41.6,49.2l-1.5-2.8l40.1-47L72.8,189z M32.1,240l42.8-50.6l2.1,0.4l-44,52.1L32.1,240z M82.6,165.6
	L82.6,165.6l-0.4-1.4l0,0l-3.6-12.6l5-84.7l5.4-9.4l-5.5,110.8L82.6,165.6z M77.8,148.8L72.6,131l4.2-52.3l5.7-10L77.8,148.8z
	 M71.9,128.4l-3.3-11.2l4.6-32.3l2.5-4.4L71.9,128.4z M66.7,110.6l-2.7-9.5l5.4-9.5L66.7,110.6z M64.9,114.3l-20,62.4l-2.3,0.8
	L64,111.2L64.9,114.3z M57.3,175.5l2.7,10.2l-21.3-3.9L57.3,175.5z M7.5,215.9l17-4.7l-3.7,12.3l-0.2,0.4l-14,3.2L7.5,215.9z
	 M6.5,228.1L20,225L4.4,253.3L6.5,228.1z M22.1,227l0.6,1.2l-18.1,32l-0.5-0.6L22.1,227z M6.9,258.1l0.8,6L5.3,261L6.9,258.1z
	 M7.6,256.8l3.8-6.7l2.6,22.2l-5.2-6.7L7.6,256.8z M13,255.8l1.5-2.4l2.5,22.7l-1.9-2.4L13,255.8z M15.3,252.2l1.2-1.9l2.7,28.7
	l-1.1-1.4L15.3,252.2z M12.8,254.3l-0.6-5.6l11-19.5l2.6,4.9L12.8,254.3z M18.9,246.5l1.6-2.4l3.8,33.1l-2.1,2.1L18.9,246.5z
	 M21.3,242.8l1.4-2.2l3.9,34.3l-1.5,1.5L21.3,242.8z M23.1,240l0.4-0.7l4.7,33.9l-1.2,1.2L23.1,240z M24,238.7l0.4-0.5l5.3,33.7
	l-0.9,0.9L24,238.7z M25.1,237l0.6-1l5.9,33.9l-1.2,1.2L25.1,237z M67.1,188l1.5,0.3l-39.5,46.3l-1-2L67.1,188z M33.6,248.9v12.6
	l-3.8-19.7L33.6,248.9z M33.6,242.9L78.2,190l2.3,0.4l-45.3,55.4L33.6,242.9z M43.3,237.4l11.9-4.6l-4.1,5.3l-12.3,4.7L43.3,237.4z
	 M87.6,193.7l0.5,1.7L54,241.1l0.2,0.2l-4.2,1.3L87.6,193.7z M89.1,198.8l0.7,2.6l-27.5,37.5l-4,1.2L89.1,198.8z M89.9,201.9
	l0.4,1.2l-25.4,34.9l-1.9,0.6L89.9,201.9z M85,219.8l2.2,10.8l-0.4,0.2l-2.4-10.3L85,219.8z M85.6,219l1.3-1.9l3,12l-1.9,1.1
	L85.6,219z M87.2,216.7l1.4-1.9l3.7,13.1l-2,1.1L87.2,216.7z M89.1,214l1.2-1.7l4,14.4l-1.4,0.8L89.1,214z M90.6,211.8l1.5-2.1
	l4.5,15.8l-1.9,1L90.6,211.8z M98,220.1l1.7-2.6l4,4l-4.6,2.5L98,220.1z M102,49.4l3.4,4.6l7,162.9l-5.8,3.2L102,49.4z M108.3,58
	l5,6.8L121,212l-6,3.3L108.3,58z M114.3,66.3l3.6,5l7.5,138.3l-3.5,2L114.3,66.3z M193.7,176.3l0.7,13.2l-63.5,33.2l-2.4-11.7
	L193.7,176.3z M194.6,191.6l1.2,22.7l-60.8,29.2l-3.8-18.7L194.6,191.6z M198.1,203.3l2.6-5.7l1.3,2.4l-3.8,6.5L198.1,203.3z
	 M205.1,222.1l3.7-9.9l1.4,2.5l-4.5,11.7L205.1,222.1z M204.9,221.1l-0.6-5.3l2.7-6.8l1.5,2.7L204.9,221.1z M204.2,214.8l-0.6-4.4
	l1.9-4l1.2,2.1L204.2,214.8z M203.5,209.5l-0.4-3.5l1.2-1.8l1,1.7L203.5,209.5z M203,205.2l-0.5-4.1l0.1-0.2l1.5,2.7L203,205.2z
	 M200.7,204.1l3.4,34.2l-1.3,3.5l-2.9-36.4L200.7,204.1z M201.5,202.8l0.4-0.7l3.9,31.4l-1,2.8L201.5,202.8z M205.8,227.4l4.7-12.2
	l1.2,2.1l-5.3,14.7L205.8,227.4z M201.2,196.5L201.2,196.5l-0.1-0.1l-3.8-6.9l-0.6-11l18.1,29.7l-2.8,7.9L201.2,196.5z M200.5,181.1
	l18,17.1l-2.8,7.8L200.5,181.1z M205.5,182.1l34.2-15.1l5.7,8.7l-31.3,14.5L205.5,182.1z M247.1,162.1l0.8,1.2l-0.2,10.7l-0.6-0.9
	V162.1L247.1,162.1z M248.3,163.9l1.8,2.7l-0.3,10.5l-1.6-2.5L248.3,163.9z M250.5,167.2l1.5,2.3l-0.5,10.5l-1.4-2.2L250.5,167.2z
	 M299.5,235.5l-5.2,2.3l-43.7-40.7l1.1-4.3L299.5,235.5z M296.7,210.2l0.7,20.9l-5-4.4l-0.3-14.5L296.7,210.2z M290.2,213l0.3,11.9
	l-2.8-2.5l-0.4-8.1L290.2,213z M286.3,214.6l0.4,6.8l-5.2-4.7L286.3,214.6z M292.4,238.5l-5.4,2.3l-38.1-36.9l1.3-4.8L292.4,238.5z
	 M285.1,241.6l-7,2.9l-31.7-31.3l1.9-7.2L285.1,241.6z M277.3,244.8l-5.8,2.4l-26.9-27.3l1.6-5.9L277.3,244.8z M269.7,248l-4.6,1.9
	l-22-24.2l1-3.8L269.7,248z M264.2,250.3l-3.8,1.6l-18.8-20.6l1.2-4.4L264.2,250.3z M259.5,252.3l-4.1,1.7l-15.1-17.5l1.1-4.2
	L259.5,252.3z M245,254.7l6.8-3.3l2.6,3l-7.3,3L245,254.7z M246.2,245l-6.4,2.8l-1.8-2.4l6.2-2.6L246.2,245z M246.7,245.5l2.4,2.8
	l-6.7,2.9l-2.2-2.9L246.7,245.5z M249.6,248.9l1.7,2l-6.7,3.2l-1.7-2.3L249.6,248.9z M243,241.2l-4.5,1.9l1.4-5.4L243,241.2z
	 M253.8,280.1L236,253.5l-0.1-0.6l0.5-1.7l19.8,27.2L253.8,280.1z M259.4,279.6l4.6,9.6l-16.4-1.1L259.4,279.6z M260.9,278.4
	l10.7-7.6l11.7,19.7l-17.2-1.2L260.9,278.4z M273.1,269.7l7.3-5.3l22.3,27.3l-17.1-1.2L273.1,269.7z M260.4,275.3l-4.7-6.3l24.1-7.7
	L260.4,275.3z M258.9,276.4l-2,1.5l-20.3-27.8l0.7-2.5L258.9,276.4z M298.3,232l-0.7-22.2l3.2-1.4V234l0,0l-0.1,0.1L298.3,232z
	 M317.7,205.4l0.5-4.4l2.9-1.2l-0.4,4L317.7,205.4z M317.2,205.6l-3.5,2l1.1-5.2l3-1.3L317.2,205.6z M313.1,207.9l-4.3,2.5l0.7-5.6
	l4.7-2L313.1,207.9z M308,210.8l-4.7,2.7l1.4-6.7l4.1-1.8L308,210.8z M302.7,213.8l-1,0.5v-6.3l2.4-1L302.7,213.8z M301.7,227.9
	l6.1-3.8l-6.1,8.6V227.9L301.7,227.9z M309.2,222.1l-7.4,4.7v-5.3l13.2-7.5L309.2,222.1z M316.2,212.1l-14.5,8.2v-5l20.1-11.3
	L316.2,212.1z M323.1,202.3l-1.5,0.8l0.4-3.8l4.5-2L323.1,202.3z M327.6,195.9l-47,20.2l-1.1-1l49.4-21.1L327.6,195.9z M329.4,193.3
	l-50.2,21.5l-1.7-1.5l52.6-20.9L329.4,193.3z M331,191l-54.4,21.6l-1.9-1.7l57.1-21L331,191z M335,180.2l15.9,4.7l-15.2,2L335,180.2
	z M370,185.6l10,3.5l-17.3,9.3l-7-11.2L370,185.6z M381.2,189.5l16.7,5.8v-0.1l9.3,2.7l-33.1,18.6l-10.9-17.4L381.2,189.5z
	 M408.5,198.3l27.4,7.9L385,234.1l-10.4-16.7L408.5,198.3z M434.6,207.9l-36.2,47.5l-12.8-20.6L434.6,207.9z M406.3,249.7l1.9,1.7
	l-6.2,7.8l-1.8-1.5L406.3,249.7z M408.6,251.7l3.7,3.3l-6.2,7.6l-3.7-3.1L408.6,251.7z M412.7,255.3l4.6,4l-6.1,7.5l-4.7-4
	L412.7,255.3z M417.6,259.6l1.8,1.6l-6.1,7.4l-1.8-1.5L417.6,259.6z M419.8,261.5l4.3,3.8l-5.7,7.5l-4.7-3.9L419.8,261.5z
	 M424.5,265.6l1.4,1.2l-5.7,7.4l-1.4-1.2L424.5,265.6z M426.2,267.1l3.7,3.2l-5.5,7.4l-3.9-3.2L426.2,267.1z M430.3,270.7l1.3,1.1
	l-5.5,7.3l-1.4-1.2L430.3,270.7z M432,272.1l4.1,3.5l-5,7.5l-4.5-3.7L432,272.1z M436.4,276l3.1,2.7l-4.2,8l-3.9-3.3L436.4,276z
	 M406.9,249l1.5-2l32.5,28.8v3L406.9,249z M444.3,224.4l1.9,2.9l-0.2,59.5l-2.3,2.1L444.3,224.4z M497.7,261.2l1.2,1.5l-8.7,4.4
	l-2-2l8.8-4L497.7,261.2z M502.1,278.7l-2.2-2.1l7.4-3.5l1.6,2L502.1,278.7z M509.2,275.5l1.1,1.4l-7,3.1l-0.9-0.9L509.2,275.5z
	 M499.2,275.9l-2.3-2.2l7.5-4.1l2.2,2.8L499.2,275.9z M496.6,273.3l-1-1l7.9-4l0.7,0.8L496.6,273.3z M495.3,272l-1.9-1.9l8.2-4.2
	l1.7,2.1L495.3,272z M493,269.7l-0.5-0.5l8.3-4.3l0.5,0.6L493,269.7z M492.1,268.9l-1.3-1.3l8.6-4.3l1,1.3L492.1,268.9z
	 M487.9,264.7l-1.7-1.7l4.9-2.4l5.1,0.4L487.9,264.7z M485.8,262.7L483,260l7.1,0.6L485.8,262.7z M481.6,259.8l20.7,20.4l-3.7,0.8
	l-20.1-19.6l1.8-1.6L481.6,259.8z M451.6,285.4l4.5,4.4l-3.8,0.8l-2.6-3.4L451.6,285.4z M453,284.2l3.6-3.2l7.8,7.1l-6.1,1.3
	L453,284.2z M458,279.7l0.7-0.7l9.3,8.3l-1.4,0.3L458,279.7z M459.1,278.7l1.1-1l9.8,9.2l-1.4,0.3L459.1,278.7z M460.5,277.4
	l2.8-2.5l12,10.9l-4.7,1L460.5,277.4z M464.1,274.3l3.1-2.8l13.2,13.3l-4,0.8L464.1,274.3z M472.8,262.7l-4.7-0.1v-1.8l6.3,0.4
	L472.8,262.7z M468.1,263l4.2,0.1l-4.2,3.8V263z M467.5,271.2l1.6-1.4l14.6,14.2l-2.8,0.6L467.5,271.2z M469.4,269.5l2.5-2.2
	l17.7,15.6l-5.4,1.1L469.4,269.5z M473.3,266l2-1.8l19,17.7l-2.4,0.5L473.3,266z M475.7,263.8l2.5-2.2L498,281l-3.2,0.7L475.7,263.8
	z M474.9,260.8l-6.8-0.5v-1.5l8.4,0.7L474.9,260.8z M466.2,268.6l-1.5,1.4v-14l1.5,2.4V268.6L466.2,268.6z M464.2,270.4l-1.4,1.2
	l-0.4-19.1l1.8,2.7V270.4L464.2,270.4z M462.4,272l-2.4,2.2v-25.5l2,3.1L462.4,272z M458.1,275.9l-3,2.7v-37.4l3,4.7V275.9
	L458.1,275.9z M454.6,279l-1.4,1.2v-41.9l1.4,2.1V279z M452.3,281l-1.8,1.7v-48.7l1.8,2.9V281L452.3,281z M450,283.1l-2.2,2
	l0.2-54.9l2,3.1L450,283.1L450,283.1z M449.2,287.6l2.5,3.2l-3.3,0.7l-1.3-2L449.2,287.6z M505.4,279.6l5.3-2.3l0.8,1L505.4,279.6z
	 M455.6,211.6l-34.7-67.5l2-1.3l34.1,59.2l-0.5,10L455.6,211.6z M487.8,202.4l1.5-6.8l1.2,4.8L487.8,202.4z M484.2,108.3l-13-14.5
	l-16.6,8.6l12.6-13.9l19.6-3.4L484.2,108.3z M96,45.1l-1.5,24.6l-0.1,0.1l0.1,0.1l-1.1,18h-0.1V88l-4.3,70.1l-0.1,0.1l0.1,0.1
	l-0.5,7.7l-0.1,0.1l0.1,0.2l-1,16.4L84.1,171l5.8-115.4L96,45.1z M62.4,105.6l1.3,4.4l-22,67.8l-4.5,1.5L62.4,105.6z M32.8,184
	l-2.1,7L9,199.3l0.5-5.5L32.8,184z M19.8,279.6l-2.8-30l0.6-0.9l2.9,31.8L19.8,279.6z M32.5,269l-5.8-33.3l1.7,3.3l5.3,27.6v1.4
	L32.5,269z M35.7,246.8l0-0.1l2.6-3.2l12.3-4.7l-3.6,4.7L35.7,246.8z M84.5,232.2h-0.1l-1.8-8.8l1.6-2.4l2.3,10L84.5,232.2z
	 M206.6,261.2l7.8,18.8l-2.3-0.2l-7.5-19l0.8-0.3L206.6,261.2z M216.7,271.8l1.2,1.4l0.5,5.8l-2.8-3.8L216.7,271.8z M216.9,271.3
	l0.7-2.2l0.3,3.4L216.9,271.3z M214.3,277.3l-1.2-2.8l2.4-8l1.7,1L214.3,277.3z M212.7,273.5l-1.1-2.7l1.5-5.8l1.9,1.1L212.7,273.5z
	 M211.1,269.8l-1.3-3.2l1.1-2.8l1.5,0.9L211.1,269.8z M209.4,265.7l-1.5-3.6l2.4,1.4L209.4,265.7z M174.1,273.8l1.1,3.7l-8.6-0.5
	L174.1,273.8z M175,273.4l4-1.7l1.6,6.1l-4.4-0.3L175,273.4z M179.8,271.4l1.3-0.6l2,7.2l-1.6-0.1L179.8,271.4z M182,270.5l4-1.7
	l3.2,9.7l-5.1-0.3L182,270.5z M186.8,268.4l1-0.4l3.3,10.6l-0.9-0.1L186.8,268.4z M188.7,267.7l2.9-1.2l4.6,12.4l-4-0.3L188.7,267.7
	z M192.4,266.1l1.7-0.7l5.5,13.7l-2.4-0.2L192.4,266.1z M195,265l2.2-1l5.9,15.3l-2.6-0.2L195,265z M199,263.3l2.1-0.9l6,17.2
	l-1.8-0.1L199,263.3z M202,262l1.8-0.8l7.3,18.5l-3-0.2L202,262z M164.5,276.8l-6.7-0.4l44.3-17.8l2.2,1.3L164.5,276.8z
	 M215.4,280.1l-0.7-1.7l0.8-2.6l3,4.2v0.3L215.4,280.1z M201.6,258.3l-44.9,18l-9.5-0.6l52.1-18.8L201.6,258.3z M200.5,248.3
	l-2.2-40.2l0.8-1.3L202,244L200.5,248.3z M220.4,196.1l-5.6-5.3l31.1-14.4l4.5,7L220.4,196.1z M239.9,272.4l7.5,12.2l-3,2.2
	L239.9,272.4z M318.2,291.4l-14.4-14.3l18,1.4L318.2,291.4z M323.2,269.4l-29.8-2.9l-5.8-5.8l13-1.5L323.2,269.4z M283.9,258
	l-29.3,9.5l-3-4l39.7-15.8L283.9,258z M435.6,287l4.2-8l1,0.8l-0.1,11.4L435.6,287z M446.8,289.7l1.2,1.8l-4.2,0.9L446.8,289.7z"/>
<g class="st1">
	<path class="st2" d="M14.7,374.8h-13v-8.9h36.4v8.9H25.3v38H14.7V374.8z"/>
	<path class="st2" d="M60.4,365.9h10.7v18.1h16.2v-18.1h10.6v46.9H87.3v-19.6H71.1v19.6H60.4V365.9z"/>
	<path class="st2" d="M123.8,365.9h10.7v46.9h-10.7V365.9z"/>
	<path class="st2" d="M160.3,365.9h10.9l12.2,23.3l4.7,10.4h0.3c-0.5-5-1.4-11.6-1.4-17.1v-16.6h10.1v46.9h-10.9L174,389.4
		l-4.6-10.2h-0.3c0.5,5.2,1.4,11.4,1.4,17v16.6h-10.2V365.9z"/>
	<path class="st2" d="M223.1,365.9h10.7v19.2h0.2l14-19.2h11.6l-14.2,18.7l16.8,28.2h-11.7L239.3,393l-5.5,7.2v12.6h-10.7V365.9z"/>
	<path class="st2" d="M312.2,365.9h16.1c9.8,0,17.4,2.7,17.4,11.7c0,4.2-2.4,8.7-7.9,10.2v0.3c6.7,1.2,10.2,4.8,10.2,11
		c0,9.6-8.1,13.8-18.3,13.8h-17.4V365.9z M327.7,384.8c5.2,0,7.5-2.2,7.5-5.8s-2.4-5-7.3-5h-5v10.7H327.7z M328.8,404.6
		c5.8,0,8.8-2.2,8.8-6.4c0-4.1-3-5.9-8.8-5.9h-5.9v12.3H328.8z"/>
	<path class="st2" d="M370.7,365.9h29.5v8.9h-18.8v9.4h16v8.9h-16v10.8h19.5v8.9h-30.2V365.9z"/>
	<path class="st2" d="M447,401.6h-14.4l-2.9,11.2H419l14.8-46.9h12.7l14.8,46.9h-11.2L447,401.6z M444.9,393.4l-1.2-4.3
		c-1.3-4.7-2.5-10.2-3.8-15.1h-0.3c-1.1,5-2.4,10.4-3.7,15.1l-1.2,4.3H444.9z"/>
	<path class="st2" d="M506.4,412.8l-9-16.9h-5.8v16.9H481v-46.9h16.9c9.9,0,18.1,3.5,18.1,14.6c0,6.9-3.4,11.3-8.4,13.5l10.6,18.8
		H506.4z M491.7,387.5h5.4c5.5,0,8.6-2.4,8.6-7s-3-6.2-8.6-6.2h-5.4V387.5z"/>
</g>
</svg>
